<svg width="78" height="17" viewBox="0 0 78 17" fill="none" xmlns="http://www.w3.org/2000/svg">
<path d="M9.42614 7H8.19318C8.09375 6.52936 7.90317 6.13329 7.62145 5.81179C7.33973 5.49029 7 5.24669 6.60227 5.08097C6.20455 4.91525 5.7803 4.83239 5.32955 4.83239C4.71307 4.83239 4.15459 4.98816 3.65412 5.29972C3.15696 5.61127 2.76089 6.07031 2.46591 6.67685C2.17424 7.28338 2.02841 8.02746 2.02841 8.90909C2.02841 9.79072 2.17424 10.5348 2.46591 11.1413C2.76089 11.7479 3.15696 12.2069 3.65412 12.5185C4.15459 12.83 4.71307 12.9858 5.32955 12.9858C5.7803 12.9858 6.20455 12.9029 6.60227 12.7372C7 12.5715 7.33973 12.3279 7.62145 12.0064C7.90317 11.6849 8.09375 11.2888 8.19318 10.8182H9.42614C9.30019 11.5142 9.04332 12.1108 8.65554 12.608C8.26776 13.1018 7.78717 13.4813 7.21378 13.7464C6.64039 14.0083 6.01231 14.1392 5.32955 14.1392C4.46117 14.1392 3.68892 13.9271 3.01278 13.5028C2.33665 13.0786 1.80469 12.4754 1.4169 11.6932C1.02912 10.911 0.835227 9.98295 0.835227 8.90909C0.835227 7.83523 1.02912 6.9072 1.4169 6.125C1.80469 5.3428 2.33665 4.73958 3.01278 4.31534C3.68892 3.8911 4.46117 3.67898 5.32955 3.67898C6.01231 3.67898 6.64039 3.81155 7.21378 4.0767C7.78717 4.33854 8.26776 4.71804 8.65554 5.2152C9.04332 5.70904 9.30019 6.30398 9.42614 7ZM11.2594 14V6.36364H17.2651V14H16.0918V7.45739H12.4327V14H11.2594ZM20.5811 12.2699L24.2601 6.36364H25.6124V14H24.4391V8.09375L20.78 14H19.4078V6.36364H20.5811V12.2699ZM30.8636 14.1591C30.1477 14.1591 29.5313 13.9901 29.0142 13.652C28.4972 13.3139 28.0994 12.8482 27.821 12.255C27.5426 11.6617 27.4034 10.9839 27.4034 10.2216C27.4034 9.44602 27.5459 8.7616 27.831 8.16832C28.1193 7.57173 28.5204 7.10606 29.0341 6.77131C29.5511 6.43324 30.1544 6.2642 30.8438 6.2642C31.3807 6.2642 31.8646 6.36364 32.2955 6.5625C32.7263 6.76136 33.0793 7.03977 33.3544 7.39773C33.6295 7.75568 33.8002 8.1733 33.8665 8.65057H32.6932C32.6037 8.30256 32.4048 7.99432 32.0966 7.72585C31.7917 7.45407 31.3807 7.31818 30.8636 7.31818C30.1776 7.31818 29.6241 7.58002 29.2031 8.10369C28.7855 8.62405 28.5767 9.31676 28.5767 10.1818C28.5767 11.0668 28.7839 11.776 29.1982 12.3097C29.6125 12.84 30.1676 13.1051 30.8636 13.1051C31.321 13.1051 31.7121 12.9875 32.0369 12.7521C32.3651 12.5168 32.5838 12.1903 32.6932 11.7727H33.8665C33.8002 12.2235 33.6361 12.6295 33.3743 12.9908C33.1158 13.3487 32.7727 13.6338 32.3452 13.8459C31.9209 14.0547 31.4271 14.1591 30.8636 14.1591ZM35.5817 14V6.36364H36.755V9.68466H37.5305L40.2749 6.36364H41.7862L38.7038 10.0426L41.826 14H40.3146L37.8089 10.7784H36.755V14H35.5817ZM45.889 14.1591C45.1996 14.1591 44.5948 13.995 44.0744 13.6669C43.5574 13.3388 43.153 12.8797 42.8613 12.2898C42.573 11.6998 42.4288 11.0104 42.4288 10.2216C42.4288 9.42614 42.573 8.73177 42.8613 8.13849C43.153 7.54522 43.5574 7.08452 44.0744 6.75639C44.5948 6.42827 45.1996 6.2642 45.889 6.2642C46.5784 6.2642 47.1816 6.42827 47.6987 6.75639C48.219 7.08452 48.6234 7.54522 48.9118 8.13849C49.2034 8.73177 49.3493 9.42614 49.3493 10.2216C49.3493 11.0104 49.2034 11.6998 48.9118 12.2898C48.6234 12.8797 48.219 13.3388 47.6987 13.6669C47.1816 13.995 46.5784 14.1591 45.889 14.1591ZM45.889 13.1051C46.4127 13.1051 46.8436 12.9709 47.1816 12.7024C47.5197 12.4339 47.7699 12.081 47.9324 11.6435C48.0948 11.206 48.176 10.732 48.176 10.2216C48.176 9.71117 48.0948 9.23556 47.9324 8.79474C47.7699 8.35393 47.5197 7.99763 47.1816 7.72585C46.8436 7.45407 46.4127 7.31818 45.889 7.31818C45.3654 7.31818 44.9345 7.45407 44.5964 7.72585C44.2583 7.99763 44.0081 8.35393 43.8457 8.79474C43.6833 9.23556 43.6021 9.71117 43.6021 10.2216C43.6021 10.732 43.6833 11.206 43.8457 11.6435C44.0081 12.081 44.2583 12.4339 44.5964 12.7024C44.9345 12.9709 45.3654 13.1051 45.889 13.1051ZM55.3164 12.4091L57.9812 6.36364H59.4925V14H58.3192V8.15838L55.7937 14H54.8391L52.3136 8.04901V14H51.1403V6.36364H52.6914L55.3164 12.4091Z" fill="#2A2349"/>
<rect x="62" width="4" height="4" rx="1" fill="#2A2349"/>
<rect x="68" width="10" height="4" rx="1" fill="#2A2349"/>
<rect x="62" y="6" width="4" height="4" rx="1" fill="#2A2349"/>
<rect x="68" y="6" width="10" height="4" rx="1" fill="#2A2349"/>
<rect x="62" y="12" width="4" height="4" rx="1" fill="#2A2349"/>
<rect x="68" y="12" width="10" height="4" rx="1" fill="#2A2349"/>
</svg>
