<svg width="30" height="30" viewBox="0 0 30 30" fill="none" xmlns="http://www.w3.org/2000/svg">
<path fill-rule="evenodd" clip-rule="evenodd" d="M11.6418 20.1784C13.5637 20.1784 15.1276 21.7445 15.1276 23.6691C15.1276 25.5938 13.5637 27.1599 11.6418 27.1599C9.71981 27.1599 8.15587 25.5939 8.15587 23.6691C8.15587 21.7444 9.71981 20.1784 11.6418 20.1784ZM25.6822 24.2773V25.7856L22.6762 30L19.6701 25.7856V24.2773H17.7512V23.061H19.6701V8.77551C19.6701 7.11526 21.0183 5.76527 22.6762 5.76527C24.334 5.76527 25.6822 7.11535 25.6822 8.77551V23.061H28.7855V5.05975H1.21452V23.061H5.5324V24.2773H0V0H30V24.2773H25.6821H25.6822ZM5.75718 10.3446V9.12827H16.5669V10.3446H5.75718ZM5.75718 12.2664V11.05H16.5669V12.2664H5.75718ZM7.19639 14.1881V12.9718H8.41099V14.1881H7.19639ZM10.5547 14.1881V12.9718H11.7693V14.1881H10.5547ZM13.913 14.1881V12.9718H15.1276V14.1881H13.913ZM11.6418 25.9436C12.8941 25.9436 13.913 24.9232 13.913 23.6691C13.913 22.415 12.8941 21.3946 11.6418 21.3946C10.3893 21.3946 9.37047 22.415 9.37047 23.6691C9.37047 24.9232 10.3894 25.9436 11.6418 25.9436ZM23.2834 24.9827H24.4676V13.2272H23.2834V14.177H22.0688V13.2272H20.8846V24.9827H22.0688V14.8825H23.2834V24.9827ZM24.4676 12.0109V11.3053H20.8847V12.0109H24.4676ZM20.8847 10.0891H24.4676V8.7756C24.4676 7.78618 23.6642 6.9815 22.6761 6.9815C21.6881 6.9815 20.8846 7.78609 20.8846 8.77551V10.0891H20.8847ZM21.4574 26.199L22.6762 27.9074L23.895 26.199H21.4575H21.4574ZM1.2146 3.84342H28.7856V1.21624H1.2146V3.84342ZM1.91912 3.13791V1.92167H3.13372V3.13791H1.91912ZM3.83815 3.13791V1.92167H5.05275V3.13791H3.83815ZM5.75718 3.13791V1.92167H6.97178V3.13791H5.75718Z" fill="#2B2A29"/>
</svg>
