<svg width="14" height="24" viewBox="0 0 14 24" fill="none" xmlns="http://www.w3.org/2000/svg">
<path d="M7.0001 12.6757C3.65788 12.6757 0.92334 9.94119 0.92334 6.59897C0.92334 3.25676 3.65788 0.522217 7.0001 0.522217C10.3423 0.522217 13.0769 3.25676 13.0769 6.59897C13.0769 9.94119 10.3423 12.6757 7.0001 12.6757ZM7.0001 3.40868C5.25303 3.40868 3.8098 4.85191 3.8098 6.59897C3.8098 8.34604 5.25303 9.78927 7.0001 9.78927C8.74716 9.78927 10.1904 8.34604 10.1904 6.59897C10.1904 4.85191 8.74716 3.40868 7.0001 3.40868Z" fill="#FD9B08"/>
<path d="M13.5327 13.2832C13.001 12.5996 12.0895 12.5236 11.4058 12.9794C11.4058 12.9794 9.73474 14.1948 7.0002 14.1948C4.26566 14.1948 2.59455 12.9794 2.59455 12.9794C1.91092 12.4477 0.999403 12.5996 0.467687 13.2832C-0.0640294 13.9669 0.0878893 14.8784 0.771524 15.4101C0.847484 15.4861 2.44263 16.7014 5.10121 17.0812L1.07536 21.183C0.467688 21.7907 0.467688 22.7782 1.07536 23.3099C1.3792 23.6137 1.759 23.7656 2.1388 23.7656C2.51859 23.7656 2.89839 23.6137 3.20223 23.3099L7.0002 19.436L10.7982 23.3099C11.102 23.6137 11.4818 23.7656 11.8616 23.7656C12.2414 23.7656 12.6212 23.6137 12.925 23.3099C13.5327 22.7022 13.5327 21.7907 12.925 21.183L8.89919 17.0812C11.5578 16.6255 13.1529 15.4101 13.2289 15.4101C13.9125 14.8784 14.0644 13.8909 13.5327 13.2832Z" fill="#FD9B08"/>
</svg>
