<svg width="26" height="26" viewBox="0 0 26 26" fill="none" xmlns="http://www.w3.org/2000/svg">
<path fill-rule="evenodd" clip-rule="evenodd" d="M10.0895 17.4879C11.7552 17.4879 13.1106 18.8452 13.1106 20.5133C13.1106 22.1813 11.7552 23.5386 10.0895 23.5386C8.42384 23.5386 7.06842 22.1814 7.06842 20.5133C7.06842 18.8451 8.42384 17.4879 10.0895 17.4879ZM22.2579 21.0403V22.3475L19.6527 26L17.0475 22.3475V21.0403H15.3844V19.9862H17.0475V7.60545C17.0475 6.16656 18.2159 4.99656 19.6527 4.99656C21.0895 4.99656 22.2579 6.16663 22.2579 7.60545V19.9862H24.9474V4.38512H1.05258V19.9862H4.79475V21.0403H0V0H26V21.0403H22.2578H22.2579ZM4.98956 8.96532V7.91117H14.3579V8.96532H4.98956ZM4.98956 10.6308V9.57669H14.3579V10.6308H4.98956ZM6.23687 12.2964V11.2422H7.28953V12.2964H6.23687ZM9.14742 12.2964V11.2422H10.2001V12.2964H9.14742ZM12.0579 12.2964V11.2422H13.1106V12.2964H12.0579ZM10.0895 22.4844C11.1749 22.4844 12.0579 21.6001 12.0579 20.5133C12.0579 19.4264 11.1749 18.542 10.0895 18.542C9.0041 18.542 8.12107 19.4263 8.12107 20.5133C8.12107 21.6001 9.00418 22.4844 10.0895 22.4844ZM20.179 21.6517H21.2053V11.4636H20.179V12.2868H19.1263V11.4636H18.1V21.6517H19.1263V12.8981H20.179V21.6517ZM21.2053 10.4094V9.79797H18.1V10.4094H21.2053ZM18.1 8.74389H21.2053V7.60552C21.2053 6.74802 20.5089 6.05064 19.6526 6.05064C18.7964 6.05064 18.1 6.74795 18.1 7.60545V8.74389H18.1ZM18.5964 22.7058L19.6527 24.1864L20.709 22.7058H18.5965H18.5964ZM1.05265 3.33097H24.9475V1.05407H1.05265V3.33097ZM1.66324 2.71952V1.66545H2.71589V2.71952H1.66324ZM3.3264 2.71952V1.66545H4.37905V2.71952H3.3264ZM4.98956 2.71952V1.66545H6.04221V2.71952H4.98956Z" fill="white"/>
</svg>
