<svg width="48" height="48" viewBox="0 0 48 48" fill="none" xmlns="http://www.w3.org/2000/svg">
<path fill-rule="evenodd" clip-rule="evenodd" d="M0 24C0 37.2548 10.7452 48 24 48C37.2548 48 48 37.2548 48 24C48 10.7452 37.2548 0 24 0C10.7452 0 0 10.7452 0 24ZM43.6365 23.9996C43.6365 34.8445 34.845 43.636 24.0001 43.636C13.1553 43.636 4.36377 34.8445 4.36377 23.9996C4.36377 13.1548 13.1553 4.36328 24.0001 4.36328C34.845 4.36328 43.6365 13.1548 43.6365 23.9996Z" fill="#00CCDB"/>
<path fill-rule="evenodd" clip-rule="evenodd" d="M26.1818 20.5404V34.9094H21.8182V20.5404L16.8155 25.5431L13.73 22.4576L24 12.1875L34.2701 22.4576L31.1845 25.5431L26.1818 20.5404Z" fill="#00CCDB"/>
</svg>
