<svg width="26" height="26" viewBox="0 0 26 26" fill="none" xmlns="http://www.w3.org/2000/svg">
<path fill-rule="evenodd" clip-rule="evenodd" d="M15.4949 13.8513H3.85278C3.62283 13.8513 3.43701 13.6652 3.43701 13.4349V6.77293C3.43701 6.54265 3.62283 6.35657 3.85278 6.35657H15.4949C15.7248 6.35657 15.9107 6.54265 15.9107 6.77293V13.4349C15.9107 13.6652 15.7248 13.8513 15.4949 13.8513Z" fill="#00CCDB"/>
<path fill-rule="evenodd" clip-rule="evenodd" d="M15.1862 19.1114L14.3658 18.8929C14.3329 18.8054 14.2964 18.7184 14.2569 18.6318L14.6826 17.8952C14.7774 17.7321 14.75 17.5255 14.6168 17.3923L13.2053 15.9787C13.0723 15.8454 12.8656 15.818 12.703 15.9128L11.9675 16.3392C11.881 16.2997 11.7941 16.263 11.7068 16.2301L11.4885 15.4085C11.4407 15.227 11.276 15.1 11.0873 15.1H9.09152C8.90317 15.1 8.73801 15.2269 8.68986 15.409L8.47157 16.2305C8.38427 16.2634 8.29742 16.3 8.21086 16.3396L7.47539 15.9133C7.31238 15.8183 7.10612 15.8458 6.97306 15.9791L5.56147 17.3926C5.42847 17.5258 5.40106 17.7324 5.49579 17.8956L5.92152 18.6322C5.88199 18.7188 5.84543 18.8058 5.8126 18.8933L4.9922 19.1119C4.81091 19.1598 4.68408 19.3247 4.68408 19.5137V21.5123C4.68408 21.7009 4.81083 21.8662 4.99257 21.9145L5.81297 22.133C5.84581 22.2205 5.88244 22.3075 5.92196 22.3941L5.49616 23.1307C5.40136 23.2939 5.42877 23.5005 5.56191 23.6337L6.9735 25.0473C7.1065 25.1805 7.31282 25.208 7.47576 25.1131L8.21131 24.6867C8.29779 24.7263 8.38464 24.763 8.47202 24.7959L8.69031 25.6174C8.73808 25.7989 8.90273 25.926 9.09152 25.926H11.0873C11.2757 25.926 11.4407 25.799 11.4889 25.617L11.7072 24.7955C11.7946 24.7625 11.8814 24.7259 11.9679 24.6863L12.7034 25.1127C12.866 25.2077 13.0727 25.1802 13.2057 25.0469L14.6173 23.6333C14.7503 23.5001 14.7778 23.2935 14.683 23.1303L14.2572 22.3937C14.2968 22.3071 14.3334 22.2201 14.3662 22.1327L15.1866 21.9141C15.3678 21.8662 15.4947 21.7013 15.4947 21.5123V19.5137C15.4947 19.3247 15.3679 19.1597 15.1862 19.1114ZM10.0895 23.0112C8.71156 23.0112 7.59471 21.8929 7.59471 20.513C7.59471 19.1331 8.71148 18.0147 10.0895 18.0147C11.4673 18.0147 12.5842 19.133 12.5842 20.513C12.5842 21.8928 11.4674 23.0112 10.0895 23.0112Z" fill="#00CCDB"/>
<path fill-rule="evenodd" clip-rule="evenodd" d="M10.0895 17.4879C11.7552 17.4879 13.1106 18.8452 13.1106 20.5133C13.1106 22.1813 11.7552 23.5386 10.0895 23.5386C8.42384 23.5386 7.06842 22.1814 7.06842 20.5133C7.06842 18.8451 8.42384 17.4879 10.0895 17.4879ZM22.2579 21.0403V22.3475L19.6527 26L17.0475 22.3475V21.0403H15.3844V19.9862H17.0475V7.60545C17.0475 6.16656 18.2159 4.99656 19.6527 4.99656C21.0895 4.99656 22.2579 6.16663 22.2579 7.60545V19.9862H24.9474V4.38512H1.05258V19.9862H4.79475V21.0403H0V0H26V21.0403H22.2578H22.2579ZM4.98956 8.96532V7.91117H14.3579V8.96532H4.98956ZM4.98956 10.6308V9.57669H14.3579V10.6308H4.98956ZM6.23687 12.2964V11.2422H7.28953V12.2964H6.23687ZM9.14742 12.2964V11.2422H10.2001V12.2964H9.14742ZM12.0579 12.2964V11.2422H13.1106V12.2964H12.0579ZM10.0895 22.4844C11.1749 22.4844 12.0579 21.6001 12.0579 20.5133C12.0579 19.4264 11.1749 18.542 10.0895 18.542C9.0041 18.542 8.12107 19.4263 8.12107 20.5133C8.12107 21.6001 9.00418 22.4844 10.0895 22.4844ZM20.179 21.6517H21.2053V11.4636H20.179V12.2868H19.1263V11.4636H18.1V21.6517H19.1263V12.8981H20.179V21.6517ZM21.2053 10.4094V9.79797H18.1V10.4094H21.2053ZM18.1 8.74389H21.2053V7.60552C21.2053 6.74802 20.5089 6.05064 19.6526 6.05064C18.7964 6.05064 18.1 6.74795 18.1 7.60545V8.74389H18.1ZM18.5964 22.7058L19.6527 24.1864L20.709 22.7058H18.5965H18.5964ZM1.05265 3.33097H24.9475V1.05407H1.05265V3.33097ZM1.66324 2.71952V1.66545H2.71589V2.71952H1.66324ZM3.3264 2.71952V1.66545H4.37905V2.71952H3.3264ZM4.98956 2.71952V1.66545H6.04221V2.71952H4.98956Z" fill="white"/>
</svg>
