<svg width="15" height="12" viewBox="0 0 15 12" fill="none" xmlns="http://www.w3.org/2000/svg">
<path fill-rule="evenodd" clip-rule="evenodd" d="M3.95801 1.89692C4.00525 1.83125 4.0577 1.75087 4.1246 1.64248C4.14904 1.60287 4.21571 1.49288 4.26533 1.41101L4.3212 1.31894C4.87386 0.414925 5.2756 0 6 0H8.66667C9.39107 0 9.79281 0.414925 10.3455 1.31894L10.4013 1.41103L10.4015 1.41136C10.4511 1.4932 10.5177 1.60293 10.5421 1.64248C10.609 1.75087 10.6614 1.83125 10.7087 1.89692C10.7398 1.94022 10.767 1.97463 10.7892 2H12.6667C13.7712 2 14.6667 2.89543 14.6667 4V10C14.6667 11.1046 13.7712 12 12.6667 12H2C0.89543 12 0 11.1046 0 10V4C0 2.89543 0.89543 2 2 2H3.87746C3.89966 1.97463 3.92687 1.94022 3.95801 1.89692ZM1.99998 3.33333C1.63179 3.33333 1.33331 3.63181 1.33331 4V10C1.33331 10.3682 1.63179 10.6667 1.99998 10.6667H12.6666C13.0348 10.6667 13.3333 10.3682 13.3333 10V4C13.3333 3.63181 13.0348 3.33333 12.6666 3.33333H10.6666C10.2238 3.33333 9.92507 3.09094 9.62624 2.6755C9.55748 2.57992 9.48937 2.47555 9.4074 2.34273C9.37931 2.29722 9.30638 2.17687 9.25634 2.09431L9.25626 2.09418L9.20785 2.01439C8.90631 1.52115 8.72447 1.33333 8.66665 1.33333H5.99998C5.94216 1.33333 5.76031 1.52115 5.45878 2.01439L5.4103 2.0943C5.36026 2.17686 5.28732 2.29721 5.25923 2.34273C5.17726 2.47555 5.10914 2.57992 5.04039 2.6755C4.74156 3.09094 4.44287 3.33333 3.99998 3.33333H1.99998ZM12.6666 4.66667C12.6666 5.03486 12.3681 5.33334 11.9999 5.33334C11.6318 5.33334 11.3333 5.03486 11.3333 4.66667C11.3333 4.29848 11.6318 4 11.9999 4C12.3681 4 12.6666 4.29848 12.6666 4.66667ZM3.99997 6.66666C3.99997 8.50761 5.49235 10 7.3333 10C9.17425 10 10.6666 8.50761 10.6666 6.66666C10.6666 4.82571 9.17425 3.33333 7.3333 3.33333C5.49235 3.33333 3.99997 4.82571 3.99997 6.66666ZM9.33328 6.66666C9.33328 7.77123 8.43785 8.66666 7.33328 8.66666C6.22871 8.66666 5.33328 7.77123 5.33328 6.66666C5.33328 5.56209 6.22871 4.66666 7.33328 4.66666C8.43785 4.66666 9.33328 5.56209 9.33328 6.66666Z" fill="white"/>
</svg>
