<svg width="17" height="18" viewBox="0 0 17 18" fill="none" xmlns="http://www.w3.org/2000/svg">
<path d="M5.57796 2.49854H5.4113C5.50296 2.49854 5.57796 2.42354 5.57796 2.33187V2.49854H11.9113V2.33187C11.9113 2.42354 11.9863 2.49854 12.078 2.49854H11.9113V3.99853H13.4113V2.33187C13.4113 1.59645 12.8134 0.998535 12.078 0.998535H5.4113C4.67588 0.998535 4.07796 1.59645 4.07796 2.33187V3.99853H5.57796V2.49854ZM16.078 3.99853H1.4113C1.04255 3.99853 0.744629 4.29645 0.744629 4.6652V5.33187C0.744629 5.42353 0.819629 5.49853 0.911296 5.49853H2.16963L2.68421 16.3944C2.71755 17.1048 3.30505 17.6652 4.01546 17.6652H13.4738C14.1863 17.6652 14.7717 17.1069 14.805 16.3944L15.3196 5.49853H16.578C16.6696 5.49853 16.7446 5.42353 16.7446 5.33187V4.6652C16.7446 4.29645 16.4467 3.99853 16.078 3.99853ZM13.3134 16.1652H4.17588L3.67171 5.49853H13.8175L13.3134 16.1652Z" fill="#fff"/>
<path d="M5.57796 2.49854H5.4113C5.50296 2.49854 5.57796 2.42354 5.57796 2.33187V2.49854ZM5.57796 2.49854H11.9113V2.33187C11.9113 2.42354 11.9863 2.49854 12.078 2.49854H11.9113V3.99853H13.4113V2.33187C13.4113 1.59645 12.8134 0.998535 12.078 0.998535H5.4113C4.67588 0.998535 4.07796 1.59645 4.07796 2.33187V3.99853H5.57796V2.49854ZM16.078 3.99853H1.4113C1.04255 3.99853 0.744629 4.29645 0.744629 4.6652V5.33187C0.744629 5.42353 0.819629 5.49853 0.911296 5.49853H2.16963L2.68421 16.3944C2.71755 17.1048 3.30505 17.6652 4.01546 17.6652H13.4738C14.1863 17.6652 14.7717 17.1069 14.805 16.3944L15.3196 5.49853H16.578C16.6696 5.49853 16.7446 5.42353 16.7446 5.33187V4.6652C16.7446 4.29645 16.4467 3.99853 16.078 3.99853ZM13.3134 16.1652H4.17588L3.67171 5.49853H13.8175L13.3134 16.1652Z" stroke="#fff" stroke-width="0.4"/>
</svg>
