<svg width="17" height="17" viewBox="0 0 17 17" fill="none" xmlns="http://www.w3.org/2000/svg">
<path d="M15.8412 4.00539L13.1012 1.26539C12.7436 0.929481 12.275 0.736744 11.7845 0.723837C11.2941 0.710931 10.816 0.878755 10.4412 1.19539L1.44121 10.1954C1.11798 10.5213 0.916719 10.9486 0.871215 11.4054L0.441215 15.5754C0.427744 15.7219 0.446749 15.8695 0.496876 16.0078C0.547003 16.1461 0.627017 16.2716 0.731215 16.3754C0.824655 16.4681 0.935471 16.5414 1.05731 16.5912C1.17915 16.6409 1.30961 16.6661 1.44121 16.6654H1.53121L5.70121 16.2854C6.15801 16.2399 6.58525 16.0386 6.91121 15.7154L15.9112 6.71539C16.2605 6.34635 16.4493 5.85389 16.4362 5.34592C16.4231 4.83795 16.2091 4.35589 15.8412 4.00539ZM5.52121 14.2854L2.52121 14.5654L2.79121 11.5654L8.44121 5.98538L11.1412 8.68539L5.52121 14.2854ZM12.4412 7.34539L9.76121 4.66539L11.7112 2.66539L14.4412 5.39538L12.4412 7.34539Z" fill="#fff"/>
</svg>
