<svg width="32" height="32" viewBox="0 0 32 32" fill="none" xmlns="http://www.w3.org/2000/svg">
<circle cx="16" cy="16" r="14" fill="white" stroke="#00CCDB" stroke-width="4"/>
<path fill-rule="evenodd" clip-rule="evenodd" d="M16.7017 11.2077C17.3824 10.884 17.9763 10.7773 18.8975 10.7774C21.2551 10.7868 23 12.7188 23 15.1797C23 17.0581 21.9221 18.8726 19.9144 20.6272C18.8605 21.5481 17.515 22.4595 16.5513 22.9444L16 23.2218L15.4487 22.9444C14.485 22.4595 13.1395 21.5481 12.0856 20.6272C10.0779 18.8726 9 17.0581 9 15.1797C9 12.6925 10.7286 10.7773 13.1074 10.7773C13.9956 10.7773 14.6199 10.8941 15.3139 11.2276C15.5555 11.3437 15.7825 11.4814 15.9936 11.6404C16.2132 11.472 16.4497 11.3276 16.7017 11.2077Z" fill="#00CCDB"/>
</svg>
