<svg width="17" height="22" viewBox="0 0 17 22" fill="none" xmlns="http://www.w3.org/2000/svg">
<path fill-rule="evenodd" clip-rule="evenodd" d="M7.63762 10.8837C8.2174 10.0694 8.1527 9.21181 7.75068 7.66917C6.95561 4.61827 7.2722 2.94606 10.0131 0.966289L11.3509 0L11.6744 1.61896C12.0183 3.33952 12.583 4.40368 14.033 6.45062C14.0906 6.53193 14.0906 6.53193 14.1485 6.6136C16.2371 9.5623 17 11.3399 17 14.5679C17 18.4839 13.0439 22 8.51209 22C3.97998 22 0.0241759 18.4844 0.0241759 14.5679C0.0241759 14.4947 0.0242509 14.4969 0.0118563 14.1734C-0.0840101 11.6713 0.378344 9.71302 2.24914 7.59858C2.64441 7.15183 3.09371 6.72246 3.59931 6.31161L4.71546 5.40463L5.25237 6.73934C5.64909 7.72557 6.11393 8.50084 6.63903 9.06976C7.08377 9.55162 7.41369 10.1576 7.63762 10.8837ZM3.83778 9.00622C2.39763 10.6339 2.05524 12.0841 2.13217 14.0921C2.14649 14.4659 2.14605 14.4527 2.14605 14.5679C2.14605 17.2518 5.09942 19.8765 8.51198 19.8765C11.9243 19.8765 14.8779 17.2514 14.8779 14.5679C14.8779 11.8692 14.275 10.4644 12.4172 7.84155C12.3596 7.76031 12.3596 7.76031 12.3018 7.67863C11.1735 6.08589 10.501 4.97795 10.0561 3.73885C9.32945 4.61016 9.37217 5.47675 9.80388 7.13333C10.599 10.1842 10.2824 11.8564 7.54146 13.8362L5.97863 14.9651L5.86147 13.0399C5.78662 11.8098 5.50839 10.9745 5.0801 10.5105C4.65695 10.052 4.27489 9.5153 3.93228 8.90125C3.90032 8.93614 3.86882 8.97114 3.83778 9.00622Z" fill="white"/>
</svg>
