<svg width="26" height="26" viewBox="0 0 26 26" fill="none" xmlns="http://www.w3.org/2000/svg">
<path fill-rule="evenodd" clip-rule="evenodd" d="M13.0001 23.8164C13.2804 23.8164 13.5079 23.589 13.5079 23.3086C13.5079 23.0283 13.2804 22.8008 13.0001 22.8008C12.7197 22.8008 12.4922 23.0283 12.4922 23.3086C12.4922 23.589 12.7197 23.8164 13.0001 23.8164Z" fill="white"/>
<path fill-rule="evenodd" clip-rule="evenodd" d="M12.4922 0.507843V3.85936C12.4922 4.13985 12.7196 4.36721 13.0001 4.36721C13.2805 4.36721 13.5079 4.13985 13.5079 3.85936V0.507843C13.5079 0.227431 13.2805 0 13.0001 0C12.7196 0 12.4922 0.227431 12.4922 0.507843Z" fill="white"/>
<path fill-rule="evenodd" clip-rule="evenodd" d="M2.23074 4.77005C2.03246 4.96833 2.03246 5.28988 2.23074 5.48824L5.10041 8.35792C5.29877 8.5562 5.62025 8.5562 5.8186 8.35792C6.01688 8.15956 6.01688 7.83801 5.8186 7.63973L2.94893 4.77005C2.75057 4.57177 2.42902 4.57177 2.23074 4.77005Z" fill="white"/>
<path fill-rule="evenodd" clip-rule="evenodd" d="M23.0542 4.76657L20.1815 7.63925C19.9833 7.83754 19.9833 8.15909 20.1815 8.35744C20.38 8.55572 20.7014 8.55565 20.8997 8.35744L23.7724 5.48476C23.9707 5.28648 23.9707 4.96493 23.7724 4.76657C23.574 4.56837 23.2526 4.56837 23.0542 4.76657Z" fill="white"/>
<path fill-rule="evenodd" clip-rule="evenodd" d="M25.4924 9.44522C24.4691 9.44522 23.5158 9.91387 22.8916 10.6975C22.6017 10.5429 22.2763 10.4609 21.9377 10.4609C20.8177 10.4609 19.9064 11.3721 19.9064 12.4922C19.9064 13.3337 20.4209 14.0573 21.1516 14.3652L21.0582 14.4776C20.5303 15.1125 19.56 15.5391 18.6434 15.5391C17.8658 15.5391 16.9635 15.2295 16.4117 14.6779L16.1603 14.4264C16.9775 14.1634 17.5704 13.3958 17.5704 12.4923C17.5704 11.3723 16.6592 10.461 15.5392 10.461H15.4876C15.5606 10.1008 15.5556 9.72354 15.4696 9.35238C15.253 8.41972 14.4752 7.66294 13.534 7.46923C11.9194 7.13666 10.461 8.35805 10.461 9.95321C10.461 10.1244 10.4783 10.2946 10.5122 10.4611H10.461C9.34097 10.4611 8.42975 11.3723 8.42975 12.4924C8.42975 13.3959 9.02272 14.1635 9.8399 14.4265L9.58848 14.6779C9.06528 15.2012 8.18928 15.5392 7.35667 15.5392C6.47025 15.5392 5.49248 15.1408 4.94208 14.4778L4.84856 14.3652C5.57933 14.0573 6.0937 13.3337 6.0937 12.4923C6.0937 11.3723 5.18255 10.461 4.06241 10.461C3.72384 10.461 3.39847 10.543 3.10855 10.6976C2.48433 9.91395 1.53107 9.4453 0.507817 9.4453C0.347304 9.4453 0.196158 9.52121 0.10039 9.64995C0.00454647 9.77869 -0.0246786 9.94527 0.0214071 10.099L3.17689 20.6172H2.84372C2.56324 20.6172 2.33588 20.8446 2.33588 21.125C2.33588 21.4054 2.56324 21.6328 2.84372 21.6328H3.35149V24.4766C3.35149 25.3166 4.0349 26.0001 4.87501 26.0001H21.125C21.9651 26.0001 22.6485 25.3166 22.6485 24.4766V21.6328H23.1563C23.4367 21.6328 23.6642 21.4054 23.6642 21.125C23.6642 20.8446 23.4367 20.6172 23.1563 20.6172H22.8232L25.9786 10.099C26.0247 9.94535 25.9955 9.77869 25.8996 9.64995C25.8037 9.52121 25.6527 9.4453 25.4922 9.4453L25.4924 9.44522ZM21.633 22.8008H15.0314C14.751 22.8008 14.5235 23.0282 14.5235 23.3086C14.5235 23.5891 14.751 23.8165 15.0314 23.8165L21.633 23.8164V24.4766C21.633 24.7566 21.4052 24.9844 21.1252 24.9844H4.87516C4.59513 24.9844 4.36732 24.7566 4.36732 24.4766V23.8164H10.9689C11.2494 23.8164 11.4767 23.5891 11.4767 23.3086C11.4767 23.0282 11.2494 22.8008 10.9689 22.8008H4.36732V21.6328H21.6329V22.8008H21.633ZM21.763 20.6172H4.23731L1.22465 10.5746C1.77618 10.7544 2.24888 11.1384 2.53543 11.663C2.6988 11.9622 3.10412 12.0175 3.3422 11.7767C3.53366 11.5832 3.78956 11.4765 4.06278 11.4765C4.62278 11.4765 5.07839 11.9321 5.07839 12.4922C5.07839 13.1054 4.53855 13.5707 3.94903 13.5016C3.74273 13.4778 3.54272 13.5814 3.44373 13.7639C3.34467 13.9464 3.36677 14.1708 3.49956 14.3305L4.16102 15.1267C4.91443 16.0341 6.18339 16.5547 7.35697 16.5547C8.46175 16.5547 9.59216 16.1108 10.307 15.3961L11.3281 14.3748C11.4733 14.2296 11.5168 14.0112 11.4382 13.8213C11.3597 13.6316 11.1745 13.5078 10.9691 13.5078H10.4613C9.90127 13.5078 9.44566 13.0522 9.44566 12.4922C9.44566 11.9321 9.90127 11.4765 10.4613 11.4765H11.2408C11.4223 11.4765 11.59 11.3797 11.6807 11.2225C11.7714 11.0653 11.7713 10.8716 11.6804 10.7145C11.5474 10.4843 11.4769 10.221 11.4769 9.95306C11.4769 9.01546 12.3287 8.25786 13.3296 8.46393C13.8807 8.57739 14.354 9.03712 14.4805 9.58176C14.5976 10.0867 14.458 10.4763 14.3204 10.7144C14.2295 10.8715 14.2293 11.0652 14.3201 11.2224C14.4108 11.3796 14.5785 11.4765 14.7599 11.4765H15.5394C16.0994 11.4765 16.5551 11.9321 16.5551 12.4921C16.5551 13.0522 16.0994 13.5078 15.5394 13.5078H15.0316C14.8262 13.5078 14.6411 13.6315 14.5624 13.8213C14.4838 14.0111 14.5274 14.2294 14.6726 14.3747L15.6938 15.396C16.4376 16.1398 17.5961 16.5546 18.6437 16.5546C19.864 16.5546 21.1184 15.9942 21.8395 15.1267L22.5012 14.3305C22.6339 14.1708 22.656 13.9464 22.5571 13.7639C22.4581 13.5813 22.2579 13.4774 22.0518 13.5015C22.0157 13.5057 21.9785 13.5077 21.9379 13.5077C21.3779 13.5077 20.9223 13.0521 20.9223 12.4921C20.9223 11.9321 21.3779 11.4764 21.9379 11.4764C22.2112 11.4764 22.4671 11.5832 22.6584 11.7766C22.7714 11.8908 22.9316 11.9449 23.0904 11.9225C23.2493 11.9001 23.3883 11.8038 23.4652 11.663C23.7518 11.1383 24.2244 10.7543 24.776 10.5745L21.7633 20.6171L21.763 20.6172Z" fill="white"/>
<path fill-rule="evenodd" clip-rule="evenodd" d="M13.0001 15.5393C11.8801 15.5393 10.9688 16.4505 10.9688 17.5706C10.9688 18.6906 11.88 19.6019 13.0001 19.6019C14.1201 19.6019 15.0314 18.6907 15.0314 17.5706C15.0314 16.4506 14.1201 15.5393 13.0001 15.5393ZM13.0001 18.5861C12.4401 18.5861 11.9845 18.1306 11.9845 17.5705C11.9845 17.0105 12.4401 16.5549 13.0001 16.5549C13.5601 16.5549 14.0157 17.0105 14.0157 17.5705C14.0157 18.1306 13.5601 18.5861 13.0001 18.5861Z" fill="white"/>
</svg>
