<svg width="25" height="30" viewBox="0 0 25 30" fill="none" xmlns="http://www.w3.org/2000/svg">
<g clip-path="url(#clip0_9308_10001)">
<path fill-rule="evenodd" clip-rule="evenodd" d="M3.82884 16.5956L3.82279 16.0302C3.80158 14.0543 4.0033 12.0419 4.48124 10.1217C5.72244 5.12962 8.74274 1.39349 13.9589 0.231565L14.9947 0.000976562L14.7155 1.01377C14.3308 2.40928 14.0601 3.85869 14.0213 5.30691C13.9977 6.2071 14.0631 7.13065 14.2866 8.00509C14.5592 9.06999 15.1734 10.3673 16.3001 10.7548C16.4946 10.8219 16.6975 10.8566 16.9035 10.8566C18.2016 10.8548 19.1187 9.55692 19.5761 8.49801L20.011 7.49121L20.6749 8.36744C22.2953 10.5068 23.1579 13.0696 22.7745 15.7481C22.7078 16.2146 22.6049 16.6758 22.4667 17.1268L22.2238 17.9216L22.889 17.4149C23.1555 17.2113 23.4263 16.9621 23.6316 16.698L24.6796 15.3504L24.7759 17.0478C24.7892 17.2789 24.7959 17.5101 24.7959 17.7413C24.7959 24.4416 19.3253 29.917 12.5499 29.999C12.499 29.9996 12.4481 30.0008 12.3967 30.0008C12.3458 30.0008 12.2949 29.9996 12.2434 29.999C5.46741 29.917 -0.00256348 24.4416 -0.00256348 17.7413C-0.00256348 16.6806 0.135549 15.6211 0.409956 14.5957L0.767958 13.2583L1.55605 14.4029C1.69779 14.6041 1.86377 14.7934 2.02975 14.976C2.44409 15.433 2.90022 15.8547 3.38301 16.2404L3.82763 16.5962L3.82884 16.5956ZM15.8713 21.3996L15.655 21.5553C15.2304 21.8608 14.7197 22.0249 14.1933 21.9668C13.2229 21.8596 12.5063 21.0762 12.1338 20.2341C11.7836 19.4411 11.6946 18.5145 11.8539 17.6658L11.9557 17.1214L11.462 17.3826C8.83481 18.7727 7.87893 21.4589 7.87893 24.2691C7.87893 26.7331 9.90579 28.7371 12.3979 28.7371C14.89 28.7371 16.9168 26.7331 16.9168 24.2691C16.9168 23.3132 16.6048 22.3806 16.0306 21.6122L15.8719 21.3996H15.8713ZM17.0913 27.7506L17.8963 27.2961C20.9402 25.5771 23.0071 22.5352 23.436 19.0919L23.5002 18.5744L23.0386 18.8266C22.425 19.1614 21.7368 19.344 21.0347 19.244L20.0443 19.1027L20.5925 18.2708C20.7464 18.0306 20.8712 17.7569 20.9808 17.4946C21.2486 16.8549 21.4309 16.1763 21.5218 15.4899C21.7629 13.6686 21.3643 11.9407 20.4605 10.3457L20.2533 9.98036L20.0068 10.3206C19.636 10.8314 19.1793 11.2896 18.6341 11.6178C17.797 12.1215 16.815 12.2683 15.8816 11.9473C14.3236 11.4112 13.4319 9.81087 13.0491 8.31414C12.5481 6.35803 12.7177 4.15277 13.1199 2.19127L13.215 1.7259L12.7637 1.88821C8.83421 3.29989 6.71164 6.488 5.73455 10.3757C5.3184 12.0305 5.12758 13.7524 5.10578 15.4558C5.09851 16.0032 5.10941 16.5512 5.14152 17.0975C5.15424 17.3113 5.16756 17.5257 5.19301 17.7389L5.34263 19.0069L4.23228 18.3558C3.3509 17.8389 2.52405 17.2262 1.78018 16.5291L1.37856 16.1529L1.32647 16.6974C1.29315 17.0436 1.27679 17.3915 1.27679 17.7395C1.27679 21.6961 3.42783 25.3346 6.90003 27.2949L7.70568 27.7494L7.27196 26.9391C6.83037 26.1144 6.602 25.2004 6.602 24.2673C6.602 21.4289 7.47671 18.6726 9.84764 16.9112C10.5212 16.4105 11.2833 16.0188 12.0823 15.7541C12.4203 15.6421 12.7886 15.5366 13.1423 15.4929L14.6204 15.3097L13.736 16.4949C13.0472 17.4179 12.8358 18.6619 13.3059 19.7262C13.4834 20.1275 13.8577 20.6563 14.3363 20.7096C14.7482 20.7557 15.1056 20.397 15.3285 20.0975L15.7459 19.5369L16.2699 20.0023C17.4929 21.0875 18.195 22.643 18.195 24.2679C18.195 25.2004 17.9666 26.1144 17.5256 26.9391L17.0919 27.7494L17.0913 27.7506Z" fill="#2B2A29"/>
<path fill-rule="evenodd" clip-rule="evenodd" d="M15.122 23.5787C14.7543 23.6535 14.3745 23.6727 13.9929 23.6308C12.404 23.4553 11.1894 22.3065 10.5697 20.9045C10.5219 20.7954 10.477 20.6852 10.4359 20.5732C9.79375 21.6429 9.55933 22.9534 9.55933 24.2692C9.55933 25.8091 10.8278 27.0633 12.3852 27.0633C13.9426 27.0633 15.2104 25.8091 15.2104 24.2692C15.2104 24.0351 15.1807 23.8033 15.122 23.5787Z" fill="#00CCDB"/>
</g>
<defs>
<clipPath id="clip0_9308_10001">
<rect width="24.7984" height="30" fill="white"/>
</clipPath>
</defs>
</svg>
