<svg width="30" height="30" viewBox="0 0 30 30" fill="none" xmlns="http://www.w3.org/2000/svg">
<g clip-path="url(#clip0_9308_9993)">
<path fill-rule="evenodd" clip-rule="evenodd" d="M17.8785 15.9827H4.44531C4.17998 15.9827 3.96558 15.768 3.96558 15.5023V7.81538C3.96558 7.54967 4.17998 7.33496 4.44531 7.33496H17.8785C18.1438 7.33496 18.3583 7.54967 18.3583 7.81538V15.5023C18.3583 15.768 18.1438 15.9827 17.8785 15.9827Z" fill="#00CCDB"/>
<path fill-rule="evenodd" clip-rule="evenodd" d="M17.5226 22.0515L16.576 21.7993C16.5381 21.6984 16.4959 21.598 16.4503 21.4981L16.9415 20.6482C17.0509 20.4599 17.0193 20.2215 16.8657 20.0678L15.237 18.4367C15.0834 18.283 14.845 18.2513 14.6574 18.3608L13.8088 18.8527C13.7089 18.8071 13.6087 18.7648 13.5079 18.7268L13.2561 17.7789C13.2009 17.5694 13.0109 17.4229 12.7931 17.4229H10.4903C10.273 17.4229 10.0824 17.5693 10.0268 17.7794L9.77497 18.7273C9.67424 18.7653 9.57402 18.8075 9.47415 18.8532L8.62552 18.3613C8.43743 18.2516 8.19945 18.2834 8.04591 18.4372L6.41715 20.0682C6.2637 20.2219 6.23207 20.4603 6.34137 20.6486L6.83259 21.4985C6.78699 21.5984 6.74481 21.6988 6.70692 21.7998L5.7603 22.052C5.55112 22.1073 5.40479 22.2975 5.40479 22.5156V24.8217C5.40479 25.0393 5.55104 25.2301 5.76073 25.2858L6.70734 25.5379C6.74524 25.6389 6.7875 25.7392 6.83311 25.8392L6.3418 26.6891C6.23241 26.8774 6.26404 27.1158 6.41767 27.2694L8.04642 28.9005C8.19988 29.0543 8.43795 29.0859 8.62595 28.9765L9.47466 28.4845C9.57445 28.5301 9.67467 28.5725 9.77548 28.6104L10.0274 29.5584C10.0825 29.7678 10.2725 29.9144 10.4903 29.9144H12.7931C13.0104 29.9144 13.2009 29.7678 13.2565 29.5579L13.5084 28.61C13.6092 28.572 13.7094 28.5297 13.8092 28.484L14.6579 28.976C14.8455 29.0856 15.084 29.0538 15.2374 28.9001L16.8662 27.269C17.0196 27.1152 17.0513 26.8769 16.942 26.6887L16.4507 25.8387C16.4963 25.7387 16.5386 25.6384 16.5765 25.5375L17.523 25.2853C17.7322 25.23 17.8786 25.0397 17.8786 24.8217V22.5156C17.8786 22.2975 17.7323 22.1072 17.5226 22.0515ZM11.6418 26.5512C10.0519 26.5512 8.7632 25.2608 8.7632 23.6686C8.7632 22.0764 10.0518 20.7859 11.6418 20.7859C13.2316 20.7859 14.5203 22.0764 14.5203 23.6686C14.5203 25.2607 13.2317 26.5512 11.6418 26.5512Z" fill="#00CCDB"/>
<path fill-rule="evenodd" clip-rule="evenodd" d="M11.6416 20.1784C13.5636 20.1784 15.1274 21.7445 15.1274 23.6691C15.1274 25.5938 13.5636 27.1599 11.6416 27.1599C9.71969 27.1599 8.15574 25.5939 8.15574 23.6691C8.15574 21.7444 9.71969 20.1784 11.6416 20.1784ZM25.6821 24.2773V25.7856L22.6761 30L19.67 25.7856V24.2773H17.7511V23.061H19.67V8.77551C19.67 7.11526 21.0182 5.76527 22.6761 5.76527C24.3339 5.76527 25.6821 7.11535 25.6821 8.77551V23.061H28.7854V5.05975H1.21439V23.061H5.53228V24.2773H-0.00012207V0H29.9999V24.2773H25.682H25.6821ZM5.75706 10.3446V9.12827H16.5667V10.3446H5.75706ZM5.75706 12.2664V11.05H16.5667V12.2664H5.75706ZM7.19627 14.1881V12.9718H8.41087V14.1881H7.19627ZM10.5546 14.1881V12.9718H11.7692V14.1881H10.5546ZM13.9128 14.1881V12.9718H15.1274V14.1881H13.9128ZM11.6416 25.9436C12.894 25.9436 13.9128 24.9232 13.9128 23.6691C13.9128 22.415 12.894 21.3946 11.6416 21.3946C10.3892 21.3946 9.37035 22.415 9.37035 23.6691C9.37035 24.9232 10.3893 25.9436 11.6416 25.9436ZM23.2833 24.9827H24.4675V13.2272H23.2833V14.177H22.0687V13.2272H20.8845V24.9827H22.0687V14.8825H23.2833V24.9827ZM24.4675 12.0109V11.3053H20.8845V12.0109H24.4675ZM20.8845 10.0891H24.4675V8.7756C24.4675 7.78618 23.664 6.9815 22.676 6.9815C21.688 6.9815 20.8845 7.78609 20.8845 8.77551V10.0891H20.8845ZM21.4573 26.199L22.6761 27.9074L23.8949 26.199H21.4574H21.4573ZM1.21448 3.84342H28.7854V1.21624H1.21448V3.84342ZM1.919 3.13791V1.92167H3.1336V3.13791H1.919ZM3.83803 3.13791V1.92167H5.05263V3.13791H3.83803ZM5.75706 3.13791V1.92167H6.97166V3.13791H5.75706Z" fill="#2B2A29"/>
</g>
<defs>
<clipPath id="clip0_9308_9993">
<rect width="30" height="30" fill="white"/>
</clipPath>
</defs>
</svg>
