<svg width="30" height="30" viewBox="0 0 30 30" fill="none" xmlns="http://www.w3.org/2000/svg">
<g clip-path="url(#clip0_9308_10008)">
<path fill-rule="evenodd" clip-rule="evenodd" d="M14.9999 27.4805C15.3234 27.4805 15.5859 27.218 15.5859 26.8946C15.5859 26.5711 15.3234 26.3086 14.9999 26.3086C14.6764 26.3086 14.4139 26.5711 14.4139 26.8946C14.4139 27.218 14.6764 27.4805 14.9999 27.4805Z" fill="black"/>
<path fill-rule="evenodd" clip-rule="evenodd" d="M14.4139 0.58597V4.4531C14.4139 4.77673 14.6764 5.03907 14.9999 5.03907C15.3235 5.03907 15.5859 4.77673 15.5859 4.4531V0.58597C15.5859 0.26242 15.3235 0 14.9999 0C14.6763 0 14.4139 0.26242 14.4139 0.58597Z" fill="black"/>
<path fill-rule="evenodd" clip-rule="evenodd" d="M2.57405 5.50362C2.34527 5.73241 2.34527 6.10342 2.57405 6.3323L5.8852 9.64346C6.11408 9.87224 6.48501 9.87224 6.71388 9.64346C6.94266 9.41459 6.94266 9.04357 6.71388 8.81478L3.40273 5.50362C3.17386 5.27483 2.80284 5.27483 2.57405 5.50362Z" fill="black"/>
<path fill-rule="evenodd" clip-rule="evenodd" d="M26.6008 5.49965L23.2862 8.81427C23.0574 9.04305 23.0574 9.41407 23.2862 9.64294C23.5152 9.87173 23.886 9.87164 24.1149 9.64294L27.4295 6.32833C27.6583 6.09954 27.6583 5.72852 27.4295 5.49965C27.2006 5.27095 26.8297 5.27095 26.6008 5.49965Z" fill="black"/>
<path fill-rule="evenodd" clip-rule="evenodd" d="M29.4141 10.898C28.2334 10.898 27.1334 11.4388 26.4131 12.343C26.0787 12.1646 25.7032 12.07 25.3125 12.07C24.0202 12.07 22.9687 13.1214 22.9687 14.4138C22.9687 15.3847 23.5623 16.2197 24.4055 16.5749L24.2977 16.7047C23.6886 17.4372 22.569 17.9294 21.5115 17.9294C20.6142 17.9294 19.573 17.5722 18.9364 16.9357L18.6463 16.6455C19.5892 16.3421 20.2734 15.4564 20.2734 14.4139C20.2734 13.1216 19.222 12.0701 17.9296 12.0701H17.8701C17.9543 11.6544 17.9486 11.2192 17.8494 10.7909C17.5995 9.71478 16.702 8.84157 15.616 8.61806C13.753 8.23433 12.0703 9.64362 12.0703 11.4842C12.0703 11.6817 12.0902 11.8781 12.1293 12.0702H12.0703C10.7779 12.0702 9.72648 13.1216 9.72648 14.414C9.72648 15.4565 10.4107 16.3422 11.3536 16.6457L11.0635 16.9358C10.4598 17.5396 9.44902 17.9295 8.48831 17.9295C7.46552 17.9295 6.33734 17.4699 5.70226 16.7048L5.59435 16.575C6.43755 16.2197 7.03104 15.3847 7.03104 14.4139C7.03104 13.1216 5.97972 12.0701 4.68725 12.0701C4.29661 12.0701 3.92118 12.1647 3.58665 12.343C2.8664 11.4389 1.76649 10.8981 0.585818 10.8981C0.400612 10.8981 0.226213 10.9857 0.115712 11.1343C0.00512384 11.2828 -0.0285972 11.475 0.0245783 11.6524L3.6655 23.7887H3.28108C2.95745 23.7887 2.69512 24.0511 2.69512 24.3747C2.69512 24.6982 2.95745 24.9606 3.28108 24.9606H3.86697V28.2419C3.86697 29.2112 4.65552 29.9997 5.62487 29.9997H24.3748C25.3441 29.9997 26.1327 29.2112 26.1327 28.2419V24.9606H26.7186C27.0422 24.9606 27.3046 24.6982 27.3046 24.3747C27.3046 24.0511 27.0422 23.7887 26.7186 23.7887H26.3342L29.9751 11.6524C30.0283 11.4751 29.9946 11.2828 29.8839 11.1343C29.7733 10.9857 29.5991 10.8981 29.4139 10.8981L29.4141 10.898ZM24.961 26.3083H17.3437C17.0202 26.3083 16.7578 26.5707 16.7578 26.8942C16.7578 27.2178 17.0202 27.4802 17.3437 27.4802L24.961 27.4801V28.2419C24.961 28.5649 24.6981 28.8278 24.375 28.8278H5.62504C5.30193 28.8278 5.03908 28.5649 5.03908 28.2419V27.4801H12.6562C12.9799 27.4801 13.2422 27.2178 13.2422 26.8942C13.2422 26.5706 12.9799 26.3083 12.6562 26.3083H5.03908V24.9606H24.9609V26.3083H24.961ZM25.1109 23.7887H4.88906L1.41294 12.2012C2.04931 12.4086 2.59473 12.8517 2.92537 13.457C3.11386 13.8022 3.58155 13.866 3.85624 13.5882C4.07716 13.365 4.37244 13.2418 4.68769 13.2418C5.33383 13.2418 5.85954 13.7675 5.85954 14.4138C5.85954 15.1213 5.23665 15.6582 4.55643 15.5785C4.3184 15.551 4.08762 15.6705 3.9734 15.8812C3.8591 16.0917 3.8846 16.3507 4.03782 16.5349L4.80104 17.4535C5.67035 18.5005 7.13454 19.1013 8.48866 19.1013C9.7634 19.1013 11.0677 18.5891 11.8925 17.7644L13.0707 16.586C13.2383 16.4185 13.2885 16.1665 13.1978 15.9474C13.1071 15.7285 12.8935 15.5856 12.6565 15.5856H12.0706C11.4244 15.5856 10.8987 15.0599 10.8987 14.4138C10.8987 13.7675 11.4244 13.2418 12.0706 13.2418H12.97C13.1794 13.2418 13.3729 13.1301 13.4776 12.9487C13.5822 12.7673 13.5821 12.5438 13.4772 12.3626C13.3237 12.097 13.2425 11.7931 13.2425 11.484C13.2425 10.4022 14.2253 9.52801 15.3801 9.76579C16.0161 9.8967 16.5622 10.4272 16.7081 11.0556C16.8432 11.6382 16.6822 12.0878 16.5234 12.3625C16.4185 12.5437 16.4183 12.7672 16.523 12.9486C16.6276 13.13 16.8211 13.2418 17.0305 13.2418H17.93C18.5761 13.2418 19.1018 13.7675 19.1018 14.4137C19.1018 15.0599 18.5761 15.5856 17.93 15.5856H17.344C17.107 15.5856 16.8934 15.7284 16.8026 15.9473C16.7119 16.1663 16.7622 16.4183 16.9297 16.5859L18.1081 17.7643C18.9663 18.6225 20.3031 19.1012 21.5118 19.1012C22.9198 19.1012 24.3671 18.4545 25.1993 17.4536L25.9627 16.5348C26.1158 16.3506 26.1414 16.0917 26.0272 15.8811C25.9129 15.6705 25.682 15.5505 25.4441 15.5784C25.4025 15.5832 25.3597 15.5855 25.3128 15.5855C24.6666 15.5855 24.1409 15.0598 24.1409 14.4137C24.1409 13.7675 24.6666 13.2418 25.3128 13.2418C25.628 13.2418 25.9233 13.3649 26.1441 13.5881C26.2745 13.7199 26.4593 13.7822 26.6425 13.7564C26.8259 13.7305 26.9863 13.6194 27.075 13.457C27.4057 12.8516 27.951 12.4085 28.5875 12.2011L25.1112 23.7886L25.1109 23.7887Z" fill="black"/>
<path fill-rule="evenodd" clip-rule="evenodd" d="M15.0002 17.9297C13.7079 17.9297 12.6564 18.9811 12.6564 20.2735C12.6564 21.5658 13.7078 22.6173 15.0002 22.6173C16.2925 22.6173 17.3439 21.5659 17.3439 20.2735C17.3439 18.9812 16.2925 17.9297 15.0002 17.9297ZM15.0002 21.4452C14.354 21.4452 13.8283 20.9196 13.8283 20.2734C13.8283 19.6272 14.354 19.1015 15.0002 19.1015C15.6464 19.1015 16.1721 19.6272 16.1721 20.2734C16.1721 20.9196 15.6464 21.4452 15.0002 21.4452Z" fill="black"/>
<path fill-rule="evenodd" clip-rule="evenodd" d="M16.172 20.2734C16.172 19.6272 15.6463 19.1016 15.0001 19.1016C14.3539 19.1016 13.8282 19.6272 13.8282 20.2734C13.8282 20.9197 14.3539 21.4453 15.0001 21.4453C15.6463 21.4453 16.172 20.9197 16.172 20.2734Z" fill="#00CCDB"/>
<path fill-rule="evenodd" clip-rule="evenodd" d="M24.961 24.96H5.03918V26.3076H12.6563C12.98 26.3076 13.2423 26.5699 13.2423 26.8936C13.2423 27.2171 12.98 27.4795 12.6563 27.4795H5.03918V28.2412C5.03918 28.5642 5.30204 28.8271 5.62515 28.8271H24.3751C24.6982 28.8271 24.9611 28.5642 24.9611 28.2412V27.4795L17.3438 27.4795C17.0203 27.4795 16.7579 27.2171 16.7579 26.8936C16.7579 26.5699 17.0203 26.3076 17.3438 26.3076H24.9611V24.96H24.961ZM15 26.3076C15.3235 26.3076 15.586 26.5701 15.586 26.8936C15.586 27.2169 15.3235 27.4795 15 27.4795C14.6766 27.4795 14.4142 27.2169 14.4142 26.8936C14.4142 26.5701 14.6766 26.3076 15 26.3076Z" fill="#00CCDB"/>
</g>
<defs>
<clipPath id="clip0_9308_10008">
<rect width="30" height="30" fill="white"/>
</clipPath>
</defs>
</svg>
