<svg width="16" height="16" viewBox="0 0 16 16" fill="none" xmlns="http://www.w3.org/2000/svg">
<g clip-path="url(#clip0_9308_9680)">
<path d="M13.968 6.31057L8.66612 1.00867C8.11802 0.460546 7.22609 0.460515 6.67793 1.00867C6.18518 1.50139 6.14275 2.25286 6.50662 2.78945L6.49925 2.82635C6.117 4.73776 5.18641 6.47663 3.808 7.855L1.37616 10.2868C0.826726 10.8363 0.826633 11.7256 1.37616 12.275L2.7016 13.6005C3.251 14.1499 4.14031 14.1499 4.68978 13.6005L5.02116 13.2691L7.34071 15.5886C7.89015 16.1381 8.7794 16.1381 9.32887 15.5886C9.87702 15.0405 9.87702 14.1486 9.32887 13.6005L8.33477 12.6064L8.66615 12.275C9.21558 11.7256 9.21565 10.8364 8.66615 10.2869L8.44096 10.0617C9.54874 9.28606 10.8068 8.7461 12.1504 8.47738L12.1877 8.46991C12.7363 8.84025 13.486 8.78072 13.968 8.29869C14.5161 7.7506 14.5161 6.85872 13.968 6.31057ZM4.02706 12.9377C3.84394 13.1208 3.54744 13.1209 3.36432 12.9377L2.03888 11.6123C1.85572 11.4291 1.85572 11.1327 2.03888 10.9496L4.35841 8.63L6.34659 10.6182C6.11965 10.8451 4.25959 12.7052 4.02706 12.9377ZM8.66612 14.2632C8.8488 14.4459 8.8488 14.7432 8.66612 14.9259C8.48343 15.1086 8.18609 15.1086 8.0034 14.9259L5.68384 12.6063L6.34659 11.9436L8.66612 14.2632ZM7.00931 11.2809C7.15018 11.14 7.36106 10.9242 7.69387 10.64L8.0034 10.9496C8.18656 11.1327 8.18656 11.4291 8.0034 11.6123L7.67203 11.9437L7.00931 11.2809ZM7.02921 9.97541L5.00116 7.94735C6.088 6.69238 6.86631 5.21098 7.28271 3.6016L11.375 7.69385C9.76558 8.11022 8.28421 8.88853 7.02921 9.97541ZM13.3052 7.63594C13.122 7.81907 12.8256 7.81907 12.6425 7.63594L7.34065 2.33411C7.1575 2.15092 7.1575 1.85454 7.34065 1.67139C7.52381 1.48823 7.82024 1.48823 8.0034 1.67139L13.3052 6.97319C13.4879 7.15591 13.4879 7.45319 13.3052 7.63594Z" fill="#00CCDB"/>
<path d="M4.68976 10.2857C4.50679 10.1027 4.21004 10.1027 4.02704 10.2857L3.36433 10.9484C3.18133 11.1314 3.18133 11.4281 3.36433 11.6111C3.54729 11.7941 3.84408 11.7941 4.02704 11.6111L4.68976 10.9484C4.87276 10.7654 4.87276 10.4687 4.68976 10.2857Z" fill="#00CCDB"/>
<path d="M10.8184 0C10.5596 0 10.3498 0.209812 10.3498 0.468624V1.40587C10.3498 1.66468 10.5596 1.8745 10.8184 1.8745C11.0772 1.8745 11.2871 1.66468 11.2871 1.40587V0.468624C11.2871 0.209812 11.0772 0 10.8184 0Z" fill="#00CCDB"/>
<path d="M14.5674 3.74882H13.6302C13.3714 3.74882 13.1615 3.95863 13.1615 4.21744C13.1615 4.47626 13.3714 4.68607 13.6302 4.68607H14.5674C14.8262 4.68607 15.036 4.47626 15.036 4.21744C15.036 3.95863 14.8262 3.74882 14.5674 3.74882Z" fill="#00CCDB"/>
<path d="M13.9615 1.07404C13.7786 0.891038 13.4818 0.891038 13.2988 1.07404L12.3616 2.01129C12.1786 2.19428 12.1786 2.491 12.3616 2.674C12.5445 2.857 12.8413 2.85703 13.0243 2.674L13.9615 1.73675C14.1445 1.55375 14.1445 1.25707 13.9615 1.07404Z" fill="#00CCDB"/>
</g>
<defs>
<clipPath id="clip0_9308_9680">
<rect width="16" height="16" fill="white"/>
</clipPath>
</defs>
</svg>
